<?xml version="1.0" encoding="UTF-8"?>
<!DOCTYPE svg PUBLIC "-//W3C//DTD SVG 1.1//EN" "http://www.w3.org/Graphics/SVG/1.1/DTD/svg11.dtd">
<!-- Creator: CorelDRAW X8 -->
<svg xmlns="http://www.w3.org/2000/svg" xml:space="preserve" width="157.794mm" height="52.0684mm" version="1.1" style="shape-rendering:geometricPrecision; text-rendering:geometricPrecision; image-rendering:optimizeQuality; fill-rule:evenodd; clip-rule:evenodd"
viewBox="0 0 12335 4070"
 xmlns:xlink="http://www.w3.org/1999/xlink">
 <defs>
  <style type="text/css">
   <![CDATA[
    .fil0 {fill:black}
    .fil3 {fill:#1F1B20}
    .fil2 {fill:#FED700}
    .fil1 {fill:black;fill-opacity:0.200000}
    .fil4 {fill:white;fill-opacity:0.200000}
   ]]>
  </style>
 </defs>
 <g id="Слой_x0020_1">
  <metadata id="CorelCorpID_0Corel-Layer"/>
  <path class="fil0" d="M1389 1528c-48,-62 -116,-103 -203,-124 -218,-73 -353,-231 -408,-473 12,-92 132,-119 13,-192 -72,-2 -128,34 -169,107 -123,219 -63,436 99,614 78,89 185,174 319,257 33,9 63,-14 91,-66 58,-91 120,-95 188,-14l70 -109 0 0zm-165 381c-73,-30 -151,-32 -237,-7 -225,45 -422,-23 -590,-206 -36,-85 55,-169 -84,-172 -64,35 -95,94 -93,177 3,252 163,409 393,484 112,36 247,57 404,61 33,-9 49,-43 46,-103 5,-106 57,-141 156,-104l5 -130 0 0zm48 412c-77,10 -147,48 -208,113 -173,152 -377,190 -614,116 -74,-55 -37,-173 -159,-107 -38,62 -36,129 7,201 129,215 347,271 583,221 115,-24 242,-74 381,-149 24,-23 20,-61 -12,-112 -50,-94 -22,-150 83,-169l-61 -114 0 0zm248 332c-62,49 -103,116 -124,203 -73,217 -231,353 -473,407 -92,-11 -119,-131 -191,-12 -2,71 33,128 107,169 219,122 435,62 615,-99 87,-79 172,-186 255,-320 9,-32 -13,-63 -66,-91 -90,-57 -95,-120 -13,-187l-110 -70 0 0zm381 164c-30,73 -31,153 -7,238 46,225 -23,422 -206,589 -85,37 -168,-54 -171,85 34,63 93,94 177,94 251,-4 409,-165 483,-394 37,-112 57,-248 61,-404 -8,-34 -43,-48 -103,-46 -106,-5 -141,-58 -104,-157l-130 -5 0 0zm412 -48c10,78 48,147 113,209 152,172 191,377 116,613 -55,75 -173,38 -107,160 63,37 129,35 201,-8 215,-128 271,-346 222,-582 -25,-115 -74,-242 -149,-382 -24,-23 -62,-20 -112,13 -95,49 -151,21 -169,-83l-115 60zm333 -248c48,62 115,103 202,125 217,73 354,231 407,473 -10,92 -131,119 -12,191 72,2 129,-34 170,-107 122,-219 61,-436 -100,-614 -79,-88 -186,-174 -320,-256 -32,-9 -62,13 -91,66 -57,90 -120,94 -187,13l-69 109 0 0zm163 -380c73,29 153,32 239,6 224,-45 421,23 589,206 36,85 -54,169 84,172 64,-35 95,-93 94,-177 -4,-252 -165,-408 -393,-483 -113,-37 -247,-58 -405,-62 -33,9 -48,43 -46,103 -5,107 -57,141 -156,104l-6 131zm-48 -413c78,-10 148,-48 209,-112 172,-152 377,-191 614,-117 74,56 37,173 159,107 38,-61 35,-129 -8,-201 -128,-215 -346,-271 -581,-221 -116,24 -243,74 -382,149 -24,23 -20,61 12,112 49,95 22,151 -83,169l60 114zm-248 -331c62,-49 105,-116 126,-204 72,-217 230,-353 472,-407 92,11 120,131 191,13 2,-72 -34,-129 -106,-170 -219,-122 -437,-62 -615,99 -88,79 -174,186 -256,320 -9,32 13,63 67,91 90,58 93,120 12,187l109 71 0 0zm-380 -165c29,-73 32,-152 6,-237 -45,-226 24,-422 206,-590 85,-37 169,54 173,-85 -35,-63 -94,-94 -178,-93 -251,3 -408,164 -483,393 -36,113 -57,248 -62,405 9,33 43,47 103,46 107,4 142,57 105,156l130 5zm-412 48c-11,-77 -48,-147 -113,-209 -152,-172 -190,-376 -117,-613 56,-74 174,-38 107,-160 -61,-37 -129,-35 -200,8 -216,129 -272,347 -222,583 24,115 74,242 149,381 24,24 61,20 113,-13 94,-49 150,-21 168,83l115 -60z"/>
  <path class="fil1" d="M12304 1624l-6898 0 0 994 6898 0 0 -994zm-6823 254l0 99 254 0 0 499 121 0 0 -499 257 0 0 -99 -632 0 0 0zm728 598l596 0 0 -93 -474 0 0 -167 460 0 0 -84 -460 0 0 -161 474 0 0 -93 -596 0 0 598zm884 -598l-164 0 269 290 -302 308 180 0 220 -252 221 252 179 0 -302 -308 270 -290 -165 0 -203 233 -203 -233zm696 598l122 0 0 -184 282 0c38,0 81,-4 116,-21 29,-14 49,-35 63,-65 16,-37 20,-82 20,-122 0,-32 -2,-67 -11,-99 -7,-22 -17,-43 -34,-61 -17,-17 -38,-28 -61,-34 -29,-9 -64,-12 -95,-12l-402 0 0 598 0 0zm122 -284l0 -215 254 0c29,0 64,5 83,28 19,20 23,52 23,79 0,20 -2,41 -9,60 -7,16 -19,29 -35,37 -18,9 -41,11 -62,11l-254 0zm589 284l596 0 0 -93 -475 0 0 -167 460 0 0 -84 -460 0 0 -161 475 0 0 -93 -596 0 0 598zm1401 -192l-127 0c-1,17 -3,36 -12,51 -9,16 -23,28 -41,32 -21,7 -48,8 -70,8l-187 0c-23,0 -50,-1 -73,-9 -20,-7 -34,-21 -43,-39 -10,-23 -13,-52 -13,-77l0 -153c0,-24 1,-56 10,-77 8,-19 22,-31 42,-36 23,-7 54,-8 78,-8l187 0c29,0 68,4 92,23 21,16 28,42 29,66l127 0c0,-37 -7,-80 -26,-112 -17,-29 -42,-49 -73,-59 -39,-14 -84,-18 -125,-18l-239 0c-42,0 -97,3 -138,18 -29,12 -51,32 -63,62 -18,39 -22,93 -22,135l0 177c0,40 3,88 19,126 13,29 33,49 62,61 38,17 88,20 128,20l270 0c41,0 95,-3 133,-18 28,-11 47,-30 58,-58 13,-34 16,-78 17,-115l0 0zm635 -406l-198 362 -211 -362 -142 0 269 420c6,10 12,22 12,35 0,46 -63,50 -96,50l-16 0 0 93 44 0c23,0 47,-1 69,-5 16,-4 31,-9 44,-19 16,-11 30,-26 42,-41 20,-27 38,-56 56,-84l271 -449 -144 0 0 0zm248 598l122 0 0 -184 282 0c38,0 81,-4 116,-21 29,-14 49,-35 63,-65 17,-37 21,-82 21,-122 0,-32 -3,-67 -12,-99 -7,-22 -17,-43 -34,-61 -17,-17 -38,-28 -61,-34 -30,-9 -64,-12 -95,-12l-402 0 0 598 0 0zm122 -284l0 -215 254 0c28,0 64,5 83,28 19,20 23,52 23,79 0,20 -2,41 -9,60 -7,16 -19,29 -35,37 -19,9 -41,11 -62,11l-254 0zm1261 92l-127 0c-1,17 -4,36 -12,51 -10,16 -24,28 -42,32 -21,7 -48,8 -70,8l-186 0c-24,0 -52,-1 -74,-9 -19,-7 -34,-21 -42,-39 -11,-23 -14,-52 -14,-77l0 -153c0,-24 2,-56 10,-77 8,-19 22,-31 41,-36 24,-7 55,-8 79,-8l187 0c30,0 67,4 92,23 20,16 28,42 30,66l127 0c-2,-37 -7,-80 -26,-112 -18,-29 -42,-49 -73,-59 -39,-14 -85,-18 -126,-18l-239 0c-43,0 -96,3 -137,18 -30,12 -51,32 -65,62 -17,39 -21,93 -21,135l0 177c0,40 4,88 20,126 12,29 32,49 61,61 39,17 88,20 128,20l271 0c41,0 94,-3 133,-18 27,-11 47,-30 57,-58 14,-34 17,-78 18,-115zm-10744 -707c-48,-60 -114,-99 -199,-120 -218,-73 -353,-230 -408,-473 12,-92 132,-119 13,-192 -72,-1 -128,35 -169,107 -123,220 -63,436 98,615 79,89 186,174 320,257 33,8 63,-14 91,-67 56,-88 117,-94 182,-20 -47,84 -80,177 -94,277 -71,-28 -148,-29 -232,-5 -225,45 -422,-23 -590,-206 -36,-85 55,-169 -84,-172 -64,34 -95,94 -93,177 3,251 163,409 393,483 112,36 247,57 404,62 33,-9 49,-43 46,-104 5,-103 54,-139 148,-107 1,101 21,197 56,286 -75,11 -143,49 -203,112 -173,153 -377,191 -614,117 -74,-56 -37,-174 -159,-107 -38,62 -36,129 7,200 129,216 347,272 583,222 115,-25 242,-75 381,-149 24,-24 20,-61 -13,-112 -47,-92 -22,-147 75,-167 50,84 115,158 192,219 -60,48 -100,114 -120,199 -73,218 -231,353 -473,408 -92,-11 -119,-132 -191,-13 -2,72 33,129 107,169 219,123 435,63 615,-99 87,-78 172,-185 255,-319 9,-33 -13,-63 -66,-91 -88,-56 -95,-117 -20,-182 84,47 177,79 276,94 -28,71 -29,149 -5,233 46,224 -23,421 -206,589 -85,36 -168,-54 -171,84 34,64 93,95 177,94 251,-3 409,-164 483,-393 37,-112 57,-248 61,-405 -8,-33 -43,-48 -103,-45 -103,-5 -139,-55 -107,-149 101,-1 197,-21 286,-56 11,76 48,143 112,204 152,172 191,377 116,613 -55,74 -173,38 -107,159 63,38 129,35 201,-8 215,-127 271,-345 221,-581 -24,-116 -73,-243 -148,-382 -24,-24 -62,-20 -113,12 -91,48 -147,23 -166,-74 69,-42 132,-93 185,-153l71 0c43,39 97,66 162,82 217,73 354,230 407,473 -10,92 -131,118 -12,191 72,2 129,-34 170,-107 122,-219 61,-436 -100,-615 -7,-8 -15,-16 -22,-24l520 0c-90,300 -254,569 -469,785 -339,339 -807,548 -1325,548 -517,0 -986,-209 -1324,-548 -339,-340 -549,-808 -549,-1325 0,-517 210,-985 549,-1324 338,-339 807,-549 1324,-549 518,0 986,210 1325,549l0 0c235,237 410,535 493,870l-75 0c18,-51 10,-107 -25,-165 -128,-216 -346,-272 -582,-222 -115,25 -242,75 -381,149 -24,24 -20,62 12,112 28,55 31,97 8,126l-109 0c-46,-67 -102,-127 -165,-177 60,-48 100,-115 121,-200 72,-217 230,-353 472,-407 92,11 120,131 191,13 2,-73 -34,-129 -106,-170 -219,-123 -437,-62 -615,99 -88,79 -174,186 -256,320 -9,32 13,63 67,91 87,56 93,116 18,181 -83,-46 -176,-79 -275,-93 27,-72 29,-149 4,-233 -45,-225 24,-421 206,-589 85,-37 169,54 173,-85 -35,-63 -94,-95 -178,-93 -251,3 -408,164 -483,392 -36,113 -57,248 -62,406 9,32 43,47 103,45 104,5 140,54 108,148 -101,1 -197,21 -286,56 -12,-75 -49,-143 -112,-204 -152,-171 -190,-375 -117,-613 56,-73 174,-37 107,-159 -61,-38 -129,-35 -201,8 -215,129 -271,347 -221,582 24,116 74,243 149,381 24,25 61,20 113,-12 92,-48 147,-23 166,74 -84,50 -158,116 -219,192zm1642 47c159,-114 345,-138 557,-71 26,19 38,47 49,71l-606 0zm-1010 -1538c550,0 1048,223 1409,583 258,258 445,588 531,955l1382 0 0 -31 6958 0 0 1057 -6958 0 0 -32 -1404 0c-93,333 -271,631 -509,869 -361,360 -859,583 -1409,583 -550,0 -1048,-223 -1408,-583 -362,-360 -584,-858 -584,-1409 0,-550 222,-1047 584,-1409 360,-360 858,-583 1408,-583l0 0z"/>
  <circle class="fil2" cx="2017" cy="2025" r="806"/>
  <path class="fil0" d="M12266 1571l-6898 0 0 994 6898 0 0 -994zm-10249 -1539c550,0 1048,223 1409,584 258,258 445,587 531,955l1383 0 -1 -32 6958 0 0 1057 -6958 0 0 -31 -1404 0c-93,332 -271,630 -509,868 -361,361 -859,584 -1409,584 -550,0 -1048,-223 -1408,-584 -361,-360 -584,-858 -584,-1408 0,-550 223,-1048 584,-1409 360,-361 858,-584 1408,-584l0 0zm1325 668c-339,-338 -807,-549 -1325,-549 -517,0 -986,211 -1324,549 -339,339 -549,808 -549,1325 0,517 210,985 549,1324 338,339 807,549 1324,549 518,0 986,-210 1325,-549 215,-216 379,-485 469,-784l-1781 0 0 -994 1805 0c-83,-335 -258,-634 -493,-871l0 0z"/>
  <path class="fil2" d="M2181 2422l694 0 0 -119 -550 0 0 -197 532 0 0 -109 -532 0 0 -189 550 0 0 -119 -694 0 0 734 0 -1zm818 0l466 0c37,0 78,-3 112,-17 28,-10 49,-28 63,-53 17,-30 21,-67 21,-101 0,-27 -3,-67 -22,-90 -18,-21 -46,-35 -71,-43l-35 -12 35 -11c21,-7 41,-17 53,-36 14,-22 16,-66 16,-90 0,-30 -5,-60 -23,-84 -16,-23 -39,-37 -65,-46 -36,-12 -77,-15 -115,-15l-435 0 0 599 0 -1zm125 -505l314 0c20,0 40,6 56,20 14,16 19,35 19,55 0,21 -4,43 -19,60 -14,17 -33,24 -55,24l-315 0 0 -159 0 0zm0 246l315 0c19,0 43,1 60,8 14,5 25,14 30,28 6,13 7,31 7,45 0,16 -1,35 -7,49 -6,14 -18,23 -33,29 -18,5 -43,7 -62,7l-310 0 0 -166 0 0zm673 259l125 0 0 -183 289 0c39,0 83,-5 119,-22 30,-13 51,-35 64,-65 17,-36 22,-82 22,-122 0,-32 -3,-67 -12,-98 -7,-23 -18,-44 -35,-62 -17,-16 -39,-28 -62,-34 -31,-9 -66,-12 -97,-12l-413 0 0 599 0 -1zm125 -283l0 -215 260 0c29,0 65,4 85,26 19,22 24,53 24,80 0,20 -2,42 -10,60 -7,18 -19,30 -36,38 -19,8 -42,11 -63,11l-260 0 0 0zm1312 83l0 -189c0,-41 -4,-92 -22,-129 -14,-29 -36,-50 -66,-62 -37,-14 -85,-18 -125,-18l-273 0c-34,0 -72,2 -105,10 -24,7 -47,16 -65,33 -18,17 -29,39 -35,62 -10,33 -12,70 -12,104l0 189c0,31 2,64 12,93 7,24 19,44 37,60 18,18 41,29 65,36 34,8 70,12 103,12l273 0c35,0 72,-3 106,-12 23,-6 46,-16 64,-33 17,-16 27,-37 33,-59 8,-31 10,-66 10,-97zm-579 -15l0 -159c1,-23 4,-52 13,-74 8,-19 23,-33 43,-40 22,-9 52,-10 75,-10l192 0c24,0 53,1 76,10 19,7 34,20 43,39 11,21 12,51 12,74l0 159c0,22 -1,49 -10,69 -8,19 -22,31 -41,38 -22,8 -53,10 -77,10l-197 0c-24,0 -53,-2 -75,-11 -18,-6 -33,-19 -42,-37 -9,-20 -11,-46 -12,-68l0 0z"/>
  <path class="fil3" d="M5443 1824l0 100 254 0 0 498 121 0 0 -498 257 0 0 -100 -632 0 0 0zm728 598l596 0 0 -93 -474 0 0 -166 460 0 0 -85 -460 0 0 -161 474 0 0 -93 -596 0 0 598zm884 -598l-164 0 269 291 -302 307 180 0 220 -251 221 251 179 0 -302 -307 270 -291 -165 0 -203 233 -203 -233zm696 598l122 0 0 -183 282 0c38,0 81,-5 116,-22 29,-13 49,-35 63,-65 17,-36 21,-82 21,-122 0,-32 -3,-67 -12,-98 -7,-23 -17,-44 -34,-62 -17,-16 -38,-28 -61,-34 -29,-9 -64,-12 -95,-12l-402 0 0 599 0 -1zm122 -283l0 -215 254 0c29,0 64,5 83,27 19,21 23,52 23,79 0,20 -2,42 -9,60 -7,17 -19,30 -35,38 -18,8 -41,11 -62,11l-254 0zm589 283l597 0 0 -93 -476 0 0 -166 460 0 0 -85 -460 0 0 -161 476 0 0 -93 -597 0 0 598zm1401 -192l-127 0c-1,18 -3,37 -12,52 -9,16 -23,27 -41,32 -21,6 -48,8 -70,8l-187 0c-23,0 -50,-2 -73,-10 -20,-7 -34,-21 -43,-39 -10,-22 -13,-52 -13,-77l0 -153c0,-23 1,-55 10,-77 8,-18 22,-30 42,-36 23,-7 54,-8 78,-8l187 0c29,0 68,4 92,23 21,16 28,42 29,67l127 0c0,-38 -7,-80 -26,-113 -17,-29 -41,-49 -73,-59 -39,-14 -84,-18 -125,-18l-239 0c-42,0 -97,4 -137,19 -30,12 -52,32 -64,61 -18,39 -22,93 -22,135l0 177c0,40 3,89 19,126 13,30 33,50 63,62 37,17 87,20 127,20l270 0c41,0 95,-3 133,-19 28,-11 47,-30 58,-58 13,-34 16,-78 17,-115l0 0zm636 -406l-199 363 -211 -363 -142 0 269 420c6,11 12,23 12,35 0,46 -63,50 -95,50l-17 0 0 93 44 0c23,0 47,0 69,-5 16,-3 31,-9 44,-18 16,-12 30,-27 42,-42 20,-26 38,-55 56,-83l271 -450 -143 0 0 0zm247 598l122 0 0 -183 282 0c38,0 81,-5 116,-22 29,-13 49,-35 63,-65 17,-36 21,-82 21,-122 0,-32 -3,-67 -12,-98 -7,-23 -17,-44 -34,-62 -17,-16 -38,-28 -61,-34 -30,-9 -64,-12 -95,-12l-402 0 0 599 0 -1zm122 -283l0 -215 254 0c28,0 64,5 83,27 19,21 23,52 23,79 0,20 -1,42 -9,60 -7,17 -19,30 -35,38 -19,8 -41,11 -62,11l-254 0zm1261 91l-127 0c-1,18 -4,37 -12,52 -10,16 -23,27 -42,32 -21,6 -48,8 -70,8l-186 0c-24,0 -52,-2 -74,-10 -19,-7 -33,-21 -42,-39 -11,-22 -14,-52 -14,-77l0 -153c0,-23 2,-55 11,-77 7,-18 21,-30 40,-36 24,-7 55,-8 79,-8l187 0c30,0 68,4 92,23 20,16 28,42 30,67l127 0c-2,-38 -7,-80 -26,-113 -18,-29 -42,-49 -73,-59 -39,-14 -85,-18 -126,-18l-239 0c-43,0 -96,4 -137,19 -30,12 -51,32 -65,61 -17,39 -21,93 -21,135l0 177c0,40 4,89 20,126 12,30 32,50 61,62 39,17 88,20 128,20l271 0c41,0 94,-3 133,-19 27,-11 47,-30 57,-58 14,-34 17,-78 18,-115z"/>
  <path class="fil4" d="M12242 1538l-6898 0 0 994 6898 0 0 -994zm-6824 254l0 99 254 0 0 499 122 0 0 -499 256 0 0 -99 -632 0 0 0zm729 598l596 0 0 -93 -475 0 0 -167 461 0 0 -84 -461 0 0 -161 475 0 0 -93 -596 0 0 598zm884 -598l-165 0 269 290 -302 308 180 0 221 -252 220 252 180 0 -302 -308 269 -290 -164 0 -203 233 -203 -233zm696 598l121 0 0 -184 282 0c39,0 82,-4 117,-21 29,-14 49,-35 62,-65 17,-37 21,-82 21,-122 0,-32 -2,-67 -11,-99 -7,-22 -18,-43 -35,-61 -16,-17 -37,-28 -60,-34 -30,-9 -64,-12 -95,-12l-402 0 0 598 0 0zm121 -284l0 -215 254 0c29,0 64,5 83,28 19,20 23,52 23,79 0,20 -1,41 -8,60 -8,17 -19,29 -35,37 -19,9 -42,11 -63,11l-254 0zm589 284l597 0 0 -93 -476 0 0 -167 461 0 0 -84 -461 0 0 -161 476 0 0 -93 -597 0 0 598zm1402 -192l-127 0c-1,17 -4,36 -12,52 -9,15 -24,27 -41,31 -22,7 -48,8 -70,8l-187 0c-24,0 -51,-1 -73,-9 -20,-7 -35,-21 -43,-39 -11,-23 -13,-52 -13,-77l0 -153c0,-24 1,-56 9,-77 8,-19 23,-31 42,-36 23,-7 54,-8 78,-8l187 0c30,0 68,4 92,23 21,16 28,42 30,66l127 0c-1,-37 -7,-80 -26,-112 -17,-29 -42,-49 -73,-59 -39,-14 -84,-18 -126,-18l-239 0c-42,0 -96,3 -137,18 -30,12 -51,32 -64,62 -18,39 -22,93 -22,135l0 177c0,40 4,88 20,126 12,29 32,49 62,61 37,17 87,20 128,20l270 0c41,0 94,-3 133,-18 28,-11 47,-30 58,-58 13,-34 16,-78 17,-115l0 0zm635 -406l-199 362 -210 -362 -142 0 269 420c5,10 12,22 12,35 0,46 -63,50 -96,50l-17 0 0 93 45 0c22,0 46,-1 69,-5 16,-4 30,-9 44,-19 16,-11 29,-26 41,-41 20,-27 39,-56 56,-83l272 -450 -144 0 0 0zm248 598l121 0 0 -184 282 0c39,0 82,-4 117,-21 29,-14 49,-35 62,-65 17,-37 21,-82 21,-122 0,-32 -2,-67 -11,-99 -7,-22 -18,-43 -35,-61 -16,-17 -37,-28 -60,-34 -31,-9 -64,-12 -95,-12l-402 0 0 598 0 0zm121 -284l0 -215 254 0c28,0 64,5 83,28 20,20 24,52 24,79 0,20 -2,41 -9,60 -7,17 -19,29 -35,37 -20,9 -42,11 -63,11l-254 0zm1261 92l-127 0c-1,17 -4,36 -12,52 -9,15 -23,27 -41,31 -22,7 -48,8 -71,8l-186 0c-23,0 -51,-1 -73,-9 -20,-7 -34,-21 -43,-39 -11,-23 -13,-52 -13,-77l0 -153c0,-24 1,-56 10,-77 7,-19 22,-31 41,-36 24,-7 54,-8 79,-8l186 0c30,0 68,4 93,23 20,16 28,42 29,66l127 0c-1,-37 -7,-80 -26,-112 -18,-29 -42,-49 -73,-59 -39,-14 -84,-18 -125,-18l-239 0c-43,0 -97,3 -138,18 -30,12 -51,32 -64,62 -17,39 -21,93 -22,135l0 177c0,40 4,88 20,126 12,29 33,49 62,61 38,17 88,20 127,20l271 0c41,0 95,-3 133,-18 27,-11 47,-30 58,-58 13,-34 16,-78 17,-115zm-10743 -707c-48,-60 -115,-99 -200,-120 -217,-73 -353,-230 -407,-473 11,-92 131,-119 13,-192 -73,-1 -129,35 -170,107 -123,220 -62,436 99,615 79,89 186,174 320,257 32,8 63,-14 91,-67 56,-88 116,-94 181,-20 -47,84 -79,177 -94,277 -71,-28 -148,-29 -232,-5 -225,45 -421,-23 -589,-206 -37,-85 54,-169 -84,-172 -64,34 -96,94 -94,177 3,251 164,409 393,483 112,36 247,57 405,62 32,-9 48,-43 45,-104 5,-103 54,-139 148,-107 1,101 21,197 56,286 -75,11 -143,49 -203,112 -172,153 -376,191 -614,117 -73,-56 -36,-174 -158,-107 -39,62 -36,129 7,200 129,216 347,272 582,222 116,-25 243,-75 381,-149 25,-24 20,-61 -12,-112 -48,-92 -23,-147 74,-167 51,84 116,158 193,219 -60,48 -100,115 -121,199 -73,218 -230,353 -473,408 -92,-11 -119,-132 -191,-13 -1,72 34,129 107,169 219,123 435,63 615,-99 88,-78 173,-185 256,-319 8,-33 -13,-63 -67,-91 -87,-56 -94,-117 -19,-182 84,47 177,79 275,94 -27,71 -28,149 -4,233 45,224 -23,421 -206,589 -85,36 -168,-54 -172,84 34,64 94,95 177,94 251,-3 409,-164 483,-393 37,-112 57,-248 62,-405 -8,-33 -43,-48 -104,-45 -103,-5 -139,-55 -107,-149 101,-1 197,-21 286,-56 11,76 49,143 112,204 153,172 191,377 117,613 -56,74 -174,38 -107,159 62,38 129,35 200,-7 216,-128 272,-346 222,-582 -25,-116 -74,-243 -149,-382 -24,-24 -61,-20 -112,12 -92,48 -148,23 -167,-74 70,-42 132,-93 186,-153l71 0c43,39 97,66 161,82 217,73 354,230 408,473 -11,92 -132,118 -13,191 72,2 129,-34 170,-107 123,-219 62,-436 -100,-615 -7,-8 -14,-16 -22,-24l520 0c-89,300 -253,569 -469,785 -339,339 -807,548 -1325,548 -517,0 -985,-209 -1324,-548 -339,-340 -549,-808 -549,-1325 0,-517 210,-985 549,-1324 339,-339 807,-549 1324,-549 518,0 986,210 1325,549l0 0c236,237 410,535 493,870l-75 0c19,-51 10,-107 -24,-165 -128,-216 -346,-272 -582,-222 -116,25 -243,75 -382,149 -24,24 -19,62 12,112 29,55 32,97 9,126l-109 0c-46,-67 -102,-127 -166,-177 60,-48 100,-115 121,-200 73,-217 230,-353 473,-407 92,11 119,131 191,13 2,-73 -34,-129 -107,-170 -219,-123 -436,-62 -615,99 -87,79 -173,186 -256,320 -8,32 14,63 67,91 88,56 93,116 19,181 -84,-46 -177,-79 -275,-93 27,-72 29,-149 4,-233 -46,-225 23,-421 206,-589 85,-37 169,54 172,-85 -35,-63 -94,-95 -178,-93 -250,3 -408,164 -482,392 -37,113 -57,248 -62,406 8,32 42,47 103,45 104,5 140,54 107,148 -101,1 -197,21 -286,56 -11,-75 -49,-143 -112,-204 -151,-171 -190,-375 -116,-613 56,-73 173,-37 106,-159 -61,-38 -128,-35 -200,8 -216,129 -272,347 -222,582 25,116 75,243 149,381 25,25 62,20 113,-12 92,-48 148,-23 167,74 -84,50 -159,116 -219,192zm1641 47c160,-114 346,-138 557,-71 26,19 39,47 49,71l-606 0zm-1010 -1538c551,0 1049,223 1409,583 258,258 446,588 531,955l1383 0 0 -31 6958 0 0 1057 -6958 0 0 -32 -1404 0c-94,333 -272,631 -510,869 -360,360 -858,583 -1409,583 -550,0 -1047,-223 -1408,-583 -361,-360 -584,-858 -584,-1409 0,-550 223,-1047 584,-1409 361,-360 858,-583 1408,-583l0 0z"/>
 </g>
</svg>
